<svg xmlns="http://www.w3.org/2000/svg" xmlns:xlink="http://www.w3.org/1999/xlink" viewBox="0 0 64 64"><defs><linearGradient id="a" x1="44.4" y1="46.72" x2="59.01" y2="15.38" gradientUnits="userSpaceOnUse"><stop offset="0" stop-color="#d4202c"/><stop offset="0.1" stop-color="#dc3d29" stop-opacity="0.79"/><stop offset="0.2" stop-color="#e45926" stop-opacity="0.58"/><stop offset="0.32" stop-color="#eb7123" stop-opacity="0.4"/><stop offset="0.43" stop-color="#f08521" stop-opacity="0.25"/><stop offset="0.55" stop-color="#f5941f" stop-opacity="0.14"/><stop offset="0.68" stop-color="#f89f1e" stop-opacity="0.06"/><stop offset="0.82" stop-color="#f9a51d" stop-opacity="0.02"/><stop offset="1" stop-color="#faa71d" stop-opacity="0"/></linearGradient><linearGradient id="b" x1="1667.91" y1="937.32" x2="1682.52" y2="905.98" gradientTransform="translate(1687.5 954.6) rotate(180)" xlink:href="#a"/></defs><title>nc-logo-icon</title><path d="M56.93,15a5.7,5.7,0,0,0-5,3l-.13.23-4.5,8.88-5.7,11.22,3.73,7.35.21.41A5.83,5.83,0,0,0,48,48.4a5.83,5.83,0,0,0,2.49-2.35l.2-.41,11.2-22,.27-.53a5.61,5.61,0,0,0,.49-2.32A5.74,5.74,0,0,0,56.93,15Z" fill="#ff5100"/><path d="M22.39,25.68l-3.72-7.32L18.46,18A5.86,5.86,0,0,0,16,15.6,5.88,5.88,0,0,0,13.49,18l-.2.4L2.09,40.41l-.27.53A5.74,5.74,0,0,0,12.09,46l.12-.23,4.51-8.88,5.69-11.21Z" fill="#ff5100"/><path d="M56.92,15a5.73,5.73,0,0,0-5,3l-.12.23-4.5,8.88-5.7,11.22,3.73,7.35.21.41A5.83,5.83,0,0,0,48,48.4a5.88,5.88,0,0,0,2.49-2.35l.2-.41,11.2-22,.27-.53a5.61,5.61,0,0,0,.49-2.32A5.74,5.74,0,0,0,56.92,15Z" fill="url(#a)"/><path d="M7.07,49a5.71,5.71,0,0,0,5-3l.12-.23,4.51-8.88,5.7-11.22-3.73-7.35L18.47,18A5.83,5.83,0,0,0,16,15.6,5.77,5.77,0,0,0,13.49,18l-.21.41-11.19,22-.27.53a5.61,5.61,0,0,0-.49,2.32A5.74,5.74,0,0,0,7.07,49Z" fill="url(#b)"/><path d="M22.39,25.68l-3.72-7.32L18.46,18A5.77,5.77,0,0,0,16,15.6a6,6,0,0,1,1.09-.41A5.76,5.76,0,0,1,18.51,15h7.81a5.78,5.78,0,0,1,5,2.95l.21.41,10.08,20,3.72,7.32.2.41A5.88,5.88,0,0,0,48,48.4a5.74,5.74,0,0,1-2.54.6h-7.8a5.78,5.78,0,0,1-5-2.94l-.2-.41Z" fill="#ff8c44"/></svg>